# xmcd
#
# Track frame offsets:
# 150
# 21231
# 39801
# 65347
# 81309
# 104199
# 122001
# 138139
# 153045
# 173966
# 189944
# 207042
#
# Disc length: 2992 seconds
#
# Revision: 1
# Processed by: cddbd v1.5.1PL0 Copyright (c) Steve Scherf et al.
# Submitted via: CedeCatalogueitor 2.6.0.6 http://personales.ya.com/cdcatalogueitor
#
DISCID=960bae0c
DTITLE=Varios - 80's Chill Out Pop Español CD1
DYEAR=2004
DGENRE=
TTITLE0=La Chica De Ayer
TTITLE1=Sufre Mamón (Devuelve A Mi Chica)
TTITLE2=Siete Vidas
TTITLE3=Sevilla
TTITLE4=Cómo Hemos Cambiado
TTITLE5=Hoy No Me Puedo Levantar
TTITLE6=Déjame
TTITLE7=Cuatro Rosas
TTITLE8=Santa Lucía
TTITLE9=Me Estoy Volvierndo Loco
TTITLE10=Espaldas Mojadas
TTITLE11=Escuela De Calor
EXTD=
EXTT0=
EXTT1=
EXTT2=
EXTT3=
EXTT4=
EXTT5=
EXTT6=
EXTT7=
EXTT8=
EXTT9=
EXTT10=
EXTT11=
PLAYORDER=
